<?xml version="1.0" standalone="no"?>
<!DOCTYPE svg PUBLIC "-//W3C//DTD SVG 20010904//EN"
 "http://www.w3.org/TR/2001/REC-SVG-20010904/DTD/svg10.dtd">
<svg version="1.0" xmlns="http://www.w3.org/2000/svg"
 width="600.000000pt" height="600.000000pt" viewBox="0 0 600.000000 600.000000"
 preserveAspectRatio="xMidYMid meet">

<g transform="translate(0.000000,600.000000) scale(0.100000,-0.100000)"
fill="#000000" stroke="none">
<path d="M2570 4703 l0 -140 -252 -6 c-266 -6 -356 -15 -475 -48 -174 -48
-309 -124 -409 -232 -105 -112 -154 -234 -154 -382 0 -111 20 -174 70 -219 36
-32 46 -36 96 -36 50 0 59 3 90 34 30 30 34 40 34 86 0 43 -9 70 -45 141 -69
136 -59 211 42 320 95 103 226 165 410 195 109 17 243 19 243 2 0 -16 -241
-914 -306 -1143 -204 -709 -333 -950 -517 -963 l-59 -5 -66 69 c-93 95 -124
114 -184 114 -41 0 -54 -5 -79 -29 -24 -25 -29 -37 -29 -80 0 -67 34 -106 132
-152 72 -34 74 -34 213 -34 131 0 144 2 208 29 211 89 373 259 502 528 70 148
118 286 209 609 l16 56 112 7 c62 4 132 9 156 13 l42 5 0 -711 0 -711 439 0
c483 0 536 5 708 62 482 159 699 658 662 1518 -19 436 -121 750 -314 970 l-49
55 65 -61 c90 -85 105 -94 167 -94 46 0 58 4 83 29 24 24 29 38 29 76 0 25 -6
60 -14 78 -21 51 -91 105 -165 128 -86 26 -247 27 -347 2 -68 -18 -72 -18
-130 0 -143 43 -212 49 -681 54 l-453 6 0 -140z m818 -179 c28 -4 52 -11 52
-16 0 -5 -14 -30 -31 -54 -76 -110 -180 -361 -279 -671 -46 -145 -54 -163 -73
-163 -12 0 -32 -3 -44 -6 l-23 -6 0 461 0 461 173 0 c94 0 196 -3 225 -6z
m-818 -499 l0 -435 -135 0 -135 0 6 28 c62 258 243 842 261 842 2 0 3 -196 3
-435z m1236 200 c80 -163 118 -366 130 -691 7 -206 -7 -460 -36 -627 -49 -286
-156 -454 -341 -531 l-36 -15 5 26 c5 24 3 25 -24 19 -73 -17 -230 -17 -320 1
l-91 18 53 240 c190 854 393 1533 519 1734 14 23 89 -70 141 -174z m-787 -847
c-11 -40 -22 -77 -24 -83 -2 -5 -4 27 -4 73 -1 80 -1 82 23 82 l24 0 -19 -72z"/>
</g>
</svg>
